<?xml version="1.0" encoding="utf-8"?>
<svg baseProfile="full" height="1536" version="1.1" width="1024" xmlns="http://www.w3.org/2000/svg" xmlns:bx="https://boxy-svg.com" viewBox="0 0 1024 1536"><defs><bx:export><bx:file format="svg" path="Unbetitelt.svg"/></bx:export></defs><g fill="#263243"><path d="M 729.0,1221.5 L 692.0,1220.5 L 680.5,1211.0 L 543.0,949.5 L 443.5,1214.0 L 434.0,1221.5 L 407.0,1221.5 L 398.5,1215.0 L 397.5,1202.0 L 451.0,756.5 L 290.5,756.0 L 291.5,1210.0 L 285.0,1218.5 L 279.0,1220.5 L 273.0,1219.5 L 267.5,1215.0 L 265.5,1211.0 L 265.5,756.0 L 248.0,755.5 L 239.0,751.5 L 227.5,739.0 L 224.5,728.0 L 225.5,718.0 L 229.5,709.0 L 239.0,699.5 L 249.0,695.5 L 265.5,693.0 L 266.5,502.0 L 257.0,500.5 L 250.5,493.0 L 204.5,345.0 L 204.5,338.0 L 208.0,334.5 L 347.0,333.5 L 353.5,339.0 L 350.5,354.0 L 306.5,493.0 L 300.0,500.5 L 290.5,503.0 L 292.0,688.5 L 534.0,647.5 L 621.0,648.5 L 638.0,656.5 L 770.5,794.0 L 775.5,806.0 L 775.5,813.0 L 769.5,826.0 L 652.5,931.0 L 736.5,1205.0 L 736.5,1214.0 L 729.0,1221.5 Z" style="fill: rgb(67, 0, 4);"/><path d="M 562.0,621.5 L 526.0,619.5 L 512.0,614.5 L 494.0,603.5 L 472.5,580.0 L 464.5,564.0 L 459.5,544.0 L 460.5,511.0 L 464.5,498.0 L 475.5,478.0 L 491.0,461.5 L 504.0,452.5 L 536.0,441.5 L 573.0,443.5 L 587.0,448.5 L 604.0,458.5 L 618.5,472.0 L 628.5,486.0 L 639.5,515.0 L 639.5,547.0 L 633.5,567.0 L 622.5,586.0 L 610.0,599.5 L 593.0,611.5 L 562.0,621.5 Z" style="fill: rgb(67, 0, 4);"/></g><ellipse style="stroke: rgb(0, 0, 0); fill: rgb(67, 0, 4);" cx="552.205" cy="530.96" rx="97.244" ry="97.718"/></svg>